# xmcd
#
# Track frame offsets: 
#        150
#        11509
#        24280
#        35850
#        46870
#        60682
#        69642
#        83090
#        92475
#        105022
#        116467
#        126622
#
# Disc length: 1808 seconds
#
# Revision: 1
# Processed by: cddbd v1.4PL0 Copyright (c) Steve Scherf et al.
# Submitted via: ExactAudioCopy v0.90b4
#
DISCID=91070e0c
DTITLE=Luiz Gonzaga - Luiz Lua Gonzaga
DYEAR=1998
DGENRE=Baiao
TTITLE0=Capitao Jagunço
TTITLE1=Baldrana Macia
TTITLE2=Creuza Morena
TTITLE3=Dedo Mindinho
TTITLE4=Amor que nao chora
TTITLE5=O tocador quer Beber
TTITLE6=Na Cabana do Rei
TTITLE7=Aroeira
TTITLE8=Rosinha
TTITLE9=Corridinho Caninde
TTITLE10=Só se rindo
TTITLE11=Alvorada da Paz
EXTD=
EXTT0=
EXTT1=
EXTT2=
EXTT3=
EXTT4=
EXTT5=
EXTT6=
EXTT7=
EXTT8=
EXTT9=
EXTT10=
EXTT11=
PLAYORDER=
